<svg xmlns="http://www.w3.org/2000/svg" width="900" height="340" viewBox="0 0 900 340" role="img" aria-label="GitHub 常用语言占比">
  <text x="24" y="44" font-family="-apple-system,BlinkMacSystemFont,'Segoe UI','Noto Sans SC',Helvetica,Arial,sans-serif" font-size="20" font-weight="700" fill="#2F3E2E">常用语言</text>
  <text x="24" y="84" font-family="-apple-system,BlinkMacSystemFont,'Segoe UI','Noto Sans SC',Helvetica,Arial,sans-serif" font-size="17" fill="#2F3E2E">Python</text><text x="876" y="84" text-anchor="end" font-family="-apple-system,BlinkMacSystemFont,'Segoe UI','Noto Sans SC',Helvetica,Arial,sans-serif" font-size="16" fill="#4A5560">81%</text><rect x="24" y="94" width="852" height="10" rx="5" fill="#F3EFE6"/><rect x="24" y="94" width="690" height="10" rx="5" fill="#3F7D3A"/>  <text x="24" y="136" font-family="-apple-system,BlinkMacSystemFont,'Segoe UI','Noto Sans SC',Helvetica,Arial,sans-serif" font-size="17" fill="#2F3E2E">CSS</text><text x="876" y="136" text-anchor="end" font-family="-apple-system,BlinkMacSystemFont,'Segoe UI','Noto Sans SC',Helvetica,Arial,sans-serif" font-size="16" fill="#4A5560">12%</text><rect x="24" y="146" width="852" height="10" rx="5" fill="#F3EFE6"/><rect x="24" y="146" width="102" height="10" rx="5" fill="#3E6FA8"/>  <text x="24" y="188" font-family="-apple-system,BlinkMacSystemFont,'Segoe UI','Noto Sans SC',Helvetica,Arial,sans-serif" font-size="17" fill="#2F3E2E">JavaScript</text><text x="876" y="188" text-anchor="end" font-family="-apple-system,BlinkMacSystemFont,'Segoe UI','Noto Sans SC',Helvetica,Arial,sans-serif" font-size="16" fill="#4A5560">2%</text><rect x="24" y="198" width="852" height="10" rx="5" fill="#F3EFE6"/><rect x="24" y="198" width="17" height="10" rx="5" fill="#C46A85"/>  <text x="24" y="240" font-family="-apple-system,BlinkMacSystemFont,'Segoe UI','Noto Sans SC',Helvetica,Arial,sans-serif" font-size="17" fill="#2F3E2E">CMake</text><text x="876" y="240" text-anchor="end" font-family="-apple-system,BlinkMacSystemFont,'Segoe UI','Noto Sans SC',Helvetica,Arial,sans-serif" font-size="16" fill="#4A5560">2%</text><rect x="24" y="250" width="852" height="10" rx="5" fill="#F3EFE6"/><rect x="24" y="250" width="17" height="10" rx="5" fill="#B08A3E"/>  <text x="24" y="292" font-family="-apple-system,BlinkMacSystemFont,'Segoe UI','Noto Sans SC',Helvetica,Arial,sans-serif" font-size="17" fill="#2F3E2E">C++</text><text x="876" y="292" text-anchor="end" font-family="-apple-system,BlinkMacSystemFont,'Segoe UI','Noto Sans SC',Helvetica,Arial,sans-serif" font-size="16" fill="#4A5560">1%</text><rect x="24" y="302" width="852" height="10" rx="5" fill="#F3EFE6"/><rect x="24" y="302" width="9" height="10" rx="5" fill="#4A5560"/>
</svg>
